<?xml version="1.0" encoding="UTF-8"?>
<svg version="1.1" xmlns="http://www.w3.org/2000/svg" width="150" height="150">
<path d="M0 0 C1.84505416 -0.00269967 3.69010692 -0.00658603 5.53515625 -0.01159668 C9.38815963 -0.0174694 13.24079021 -0.009001 17.09375 0.00976562 C22.0094979 0.03255386 26.92437197 0.01941877 31.84008789 -0.00452423 C35.64589918 -0.01904269 39.45150647 -0.01434863 43.25732422 -0.00401306 C45.06884873 -0.00136245 46.88039234 -0.00455627 48.69189453 -0.01393127 C62.70915931 -0.0705708 73.49780272 1.32132166 84 11.53125 C93.79513469 23.01913612 94.46656913 34.10504601 94.43359375 48.5234375 C94.43816289 50.27784424 94.44347062 52.0322492 94.44947815 53.78665161 C94.45838125 57.45305682 94.45601868 61.11924389 94.44604492 64.78564453 C94.43456606 69.45804849 94.45476429 74.12969544 94.48396206 78.80200005 C94.50240894 82.42254328 94.50201467 86.04290799 94.49632454 89.66348648 C94.49617232 91.38487941 94.50213331 93.10628522 94.51461601 94.8276329 C94.59108277 107.10037376 93.73860298 117.37433359 86 127.53125 C85.46375 128.35625 84.9275 129.18125 84.375 130.03125 C77.24069223 137.54104765 67.28177013 141.54440103 57.03941917 141.89402103 C53.01677226 141.96795089 48.995866 141.97402851 44.97265625 141.96484375 C43.21585388 141.9694125 41.45905329 141.97472012 39.70225525 141.98072815 C36.03165395 141.98963052 32.36127056 141.98726896 28.69067383 141.97729492 C24.0092042 141.96580753 19.32848916 141.98602774 14.64711857 142.01521206 C11.02232666 142.0336422 7.39771333 142.03326811 3.77288628 142.02757454 C2.04787576 142.02742216 0.32285249 142.03339649 -1.40211296 142.04586601 C-10.56535851 142.1027858 -18.74525587 142.06030038 -27 137.53125 C-27.90234375 137.06203125 -28.8046875 136.5928125 -29.734375 136.109375 C-38.67691649 130.2170027 -44.90069006 121.48900986 -47.0949707 110.92919922 C-48.10540691 105.59893943 -48.27286769 100.45150415 -48.23046875 95.0390625 C-48.23055435 94.06263794 -48.23063995 93.08621338 -48.23072815 92.0802002 C-48.22747305 88.93873618 -48.20869769 85.79764056 -48.1875 82.65625 C-48.17795575 80.49007207 -48.16851614 78.32389368 -48.15917969 76.15771484 C-48.13139247 70.88928882 -48.086047 65.62122389 -48.02996826 60.35302734 C-48.00292837 57.80698223 -47.97994936 55.26093244 -47.95751953 52.71484375 C-47.91924762 48.86112548 -47.84176014 45.00909969 -47.75 41.15625 C-47.73606201 40.09164551 -47.72212402 39.02704102 -47.70776367 37.93017578 C-47.2991592 25.53415031 -42.13691576 16.22023654 -33.25 7.78125 C-23.05449603 -0.43353106 -12.48817908 -0.06462967 0 0 Z " fill="#8F12F5" transform="translate(52,4.46875)"/>
<path d="M0 0 C0.66 0 1.32 0 2 0 C5.8325554 8.78317769 5.45507988 17.59743737 5.43359375 26.9921875 C5.43816289 28.74659424 5.44347062 30.5009992 5.44947815 32.25540161 C5.45838125 35.92180682 5.45601868 39.58799389 5.44604492 43.25439453 C5.43456606 47.92679849 5.45476429 52.59844544 5.48396206 57.27075005 C5.50240894 60.89129328 5.50201467 64.51165799 5.49632454 68.13223648 C5.49617232 69.85362941 5.50213331 71.57503522 5.51461601 73.2963829 C5.59108277 85.56912376 4.73860298 95.84308359 -3 106 C-3.53625 106.825 -4.0725 107.65 -4.625 108.5 C-11.75930777 116.00979765 -21.71822987 120.01315103 -31.96058083 120.36277103 C-35.98322774 120.43670089 -40.004134 120.44277851 -44.02734375 120.43359375 C-45.78414612 120.4381625 -47.54094671 120.44347012 -49.29774475 120.44947815 C-52.96834605 120.45838052 -56.63872944 120.45601896 -60.30932617 120.44604492 C-64.9907958 120.43455753 -69.67151084 120.45477774 -74.35288143 120.48396206 C-77.97767334 120.5023922 -81.60228667 120.50201811 -85.22711372 120.49632454 C-86.95212424 120.49617216 -88.67714751 120.50214649 -90.40211296 120.51461601 C-101.99547144 120.58663105 -111.30791727 119.5956552 -121.125 112.875 C-121.87007812 112.37742187 -122.61515625 111.87984375 -123.3828125 111.3671875 C-123.91648437 110.91601562 -124.45015625 110.46484375 -125 110 C-125 109.34 -125 108.68 -125 108 C-123.3594214 106.80977631 -121.71444737 105.62319969 -120.01953125 104.51171875 C-117.42394608 102.56879523 -115.27096894 100.31219682 -113 98 C-106.87021199 92.23303434 -100.55359932 86.75963791 -94.0078125 81.47265625 C-89.83208669 78.03988425 -85.76433903 74.48842579 -81.68847656 70.93823242 C-77.65283611 67.42567384 -73.59270477 63.94585654 -69.5 60.5 C-64.17832001 56.01630253 -58.91173926 51.47198789 -53.65844727 46.90844727 C-47.70837673 41.74101927 -41.72650957 36.61139307 -35.73828125 31.48828125 C-33.98047082 29.98327951 -32.22435554 28.47632297 -30.46875 26.96875 C-24.66078802 21.9822536 -18.84334425 17.00751767 -13 12.0625 C-12.48429443 11.62607178 -11.96858887 11.18964355 -11.43725586 10.73999023 C-7.28275844 7.22932833 -7.28275844 7.22932833 -5.328125 5.64404297 C-2.21300358 3.20788529 -2.21300358 3.20788529 0 0 Z " fill="#A21EF2" transform="translate(141,26)"/>
<path d="M0 0 C1.37575449 0.00747822 2.75151978 0.01316366 4.12728882 0.01715088 C7.71464449 0.03228334 11.30133242 0.07145393 14.88842773 0.1159668 C18.5622454 0.15719061 22.23617301 0.17521919 25.91015625 0.1953125 C33.09405148 0.23796385 40.27740025 0.30605978 47.4609375 0.390625 C39.39812354 8.48554826 31.00538881 16.04824443 22.109375 23.2109375 C18.6388361 26.06722173 15.33720967 29.09006275 12.01953125 32.12109375 C8.39404319 35.33698469 4.61080757 38.34418087 0.80859375 41.34765625 C-1.3499189 43.22602915 -2.93490497 45.03468407 -4.5390625 47.390625 C3.92764466 56.06299177 3.92764466 56.06299177 13.296875 63.7265625 C16.0187815 65.73285039 17.34176092 66.96892326 18.2734375 70.265625 C17.04504154 74.99022485 14.07015603 77.25666616 10.4609375 80.390625 C9.54054688 81.22400391 9.54054688 81.22400391 8.6015625 82.07421875 C6.58235211 83.88066111 4.52456492 85.63510862 2.4609375 87.390625 C1.5328125 88.20789063 0.6046875 89.02515625 -0.3515625 89.8671875 C-1.3209375 90.69992188 -2.2903125 91.53265625 -3.2890625 92.390625 C-4.64257812 93.56625 -4.64257812 93.56625 -6.0234375 94.765625 C-8.5390625 96.390625 -8.5390625 96.390625 -10.8046875 96.203125 C-12.5390625 95.390625 -12.5390625 95.390625 -13.5390625 94.390625 C-13.8828125 92.1328125 -13.8828125 92.1328125 -13.5390625 89.390625 C-11.6328125 86.9609375 -11.6328125 86.9609375 -9.0390625 84.515625 C-8.13285156 83.65066406 -7.22664063 82.78570312 -6.29296875 81.89453125 C-3.2666062 79.14290232 -0.19977921 76.45483365 2.96484375 73.86328125 C4.72590376 72.3528274 4.72590376 72.3528274 5.4609375 69.390625 C5.02265625 69.01292969 4.584375 68.63523437 4.1328125 68.24609375 C-2.20229357 62.74794275 -8.37160112 57.07496857 -14.5390625 51.390625 C-21.16506928 56.76844614 -27.7284609 62.20786547 -34.2097168 67.7590332 C-36.59022884 69.78848504 -38.93198309 71.65257206 -41.5390625 73.390625 C-41.87720998 75.86553614 -42.02778589 78.10414188 -42.05078125 80.5859375 C-42.06873245 81.29338104 -42.08668365 82.00082458 -42.10517883 82.72970581 C-42.15940692 84.99161803 -42.19321566 87.25331784 -42.2265625 89.515625 C-42.25972476 91.04820673 -42.2942134 92.58076038 -42.33007812 94.11328125 C-42.41513977 97.87224279 -42.48189003 101.63114 -42.5390625 105.390625 C-42.8690625 105.390625 -43.1990625 105.390625 -43.5390625 105.390625 C-43.72733792 58.38549329 -43.72733792 58.38549329 -43.2890625 41.015625 C-43.27496338 39.95182617 -43.26086426 38.88802734 -43.24633789 37.79199219 C-42.84006706 25.39515966 -37.67621937 16.07984049 -28.7890625 7.640625 C-19.92223676 0.43578928 -11.1260971 -0.17607438 0 0 Z " fill="#6B00F9" transform="translate(47.5390625,4.609375)"/>
<path d="M0 0 C0.1533402 6.75832725 0.25770894 13.51619883 0.32958984 20.27587891 C0.35958469 22.57064578 0.40039491 24.86529975 0.45263672 27.15966797 C0.99227943 51.48591487 0.99227943 51.48591487 -6 61 C-6.37882324 61.59828613 -6.75764648 62.19657227 -7.14794922 62.81298828 C-11.34826784 68.76638627 -19.21989924 72.72017066 -26 75 C-29.22077942 75.24050903 -29.22077942 75.24050903 -32.90161133 75.22705078 C-33.91220108 75.22748886 -33.91220108 75.22748886 -34.94320679 75.22793579 C-37.15628214 75.22654938 -39.36901516 75.21102111 -41.58203125 75.1953125 C-43.12188025 75.19157991 -44.66173163 75.1887341 -46.20158386 75.18673706 C-50.24415708 75.17911994 -54.28658539 75.15948808 -58.32910156 75.1373291 C-62.4583134 75.11682918 -66.58754876 75.10772649 -70.71679688 75.09765625 C-78.81126423 75.07624026 -86.90561406 75.04212766 -95 75 C-91.18677741 68.41215444 -85.8368964 63.89837027 -80.125 59 C-78.7942169 57.85292715 -77.4634894 56.70578979 -76.1328125 55.55859375 C-75.45250977 54.97319824 -74.77220703 54.38780273 -74.07128906 53.78466797 C-70.70682661 50.88577352 -67.35403087 47.97344976 -64 45.0625 C-59.34722202 41.02532805 -54.68107081 37.00434306 -50 33 C-51.11375 33.04125 -52.2275 33.0825 -53.375 33.125 C-57 33 -57 33 -59 31 C-49.43 30.67 -39.86 30.34 -30 30 C-29.01 27.36 -28.02 24.72 -27 22 C-24.65234375 19.56640625 -24.65234375 19.56640625 -21.9375 17.5625 C-17.17432456 13.91598953 -12.70696382 10.09886812 -8.2890625 6.04296875 C-1.51816444 0 -1.51816444 0 0 0 Z " fill="#B621EF" transform="translate(145,70)"/>
<path d="M0 0 C1.34377213 -0.00074776 1.34377213 -0.00074776 2.71469116 -0.00151062 C4.60245998 0.00082387 6.49023227 0.01051544 8.37792969 0.02709961 C11.27046424 0.05075693 14.16208035 0.04764779 17.0546875 0.04101562 C18.8906305 0.04659061 20.72656963 0.05369936 22.5625 0.0625 C23.42815582 0.06158859 24.29381165 0.06067719 25.18569946 0.05973816 C25.99018524 0.06927017 26.79467102 0.07880219 27.62353516 0.08862305 C28.33015289 0.09323044 29.03677063 0.09783783 29.76480103 0.10258484 C31.6484375 0.36328125 31.6484375 0.36328125 34.6484375 2.36328125 C34.9609375 4.86328125 34.9609375 4.86328125 34.6484375 7.36328125 C32.6484375 9.36328125 32.6484375 9.36328125 30.77246094 9.57104492 C30.02512695 9.5579126 29.27779297 9.54478027 28.5078125 9.53125 C27.68410156 9.53833984 26.86039062 9.54542969 26.01171875 9.55273438 C24.28503105 9.55144388 22.55823911 9.53095922 20.83203125 9.49023438 C15.99046529 9.52857048 15.99046529 9.52857048 11.88574219 11.82128906 C10.87259642 13.03510936 9.89899645 14.28303996 8.96777344 15.56079102 C7.12299485 18.08114637 4.8499347 19.82259033 2.3984375 21.73828125 C-1.2918048 24.68050146 -4.86779822 27.67907632 -8.3515625 30.86328125 C-12.73375659 34.86045829 -17.2759254 38.61470287 -21.90625 42.3203125 C-25.61523888 45.41903644 -28.43959155 48.48065332 -31.3515625 52.36328125 C0.3284375 52.85828125 0.3284375 52.85828125 32.6484375 53.36328125 C32.6484375 53.69328125 32.6484375 54.02328125 32.6484375 54.36328125 C22.3905184 54.45625237 12.13270071 54.52718329 1.87444496 54.57052994 C-2.88968235 54.59134167 -7.65351988 54.61954114 -12.41748047 54.66503906 C-17.02109218 54.70872689 -21.62442639 54.73246652 -26.22822952 54.74279022 C-27.97839344 54.75014064 -29.72854338 54.76449371 -31.4785881 54.78620148 C-43.83922675 54.93332787 -53.12378636 53.89953735 -63.3515625 46.36328125 C-60.13130665 43.05645938 -56.83744764 40.04832122 -53.2265625 37.17578125 C-49.31814086 34.01656108 -45.54776443 30.76823518 -41.8515625 27.36328125 C-37.41231225 23.27715318 -32.8232339 19.45078745 -28.125 15.66796875 C-24.23278971 12.43359682 -20.54539657 8.99330433 -16.859375 5.52734375 C-11.17307917 0.62047788 -7.3163025 -0.07820418 0 0 Z " fill="#A318F0" transform="translate(82.3515625,91.63671875)"/>
<path d="M0 0 C1.41925781 0.00966797 1.41925781 0.00966797 2.8671875 0.01953125 C8.86721949 0.16080624 13.51215276 1.20465228 19 3.625 C18.17359327 7.75435397 16.73758371 8.97856768 13.375 11.5625 C8.70716273 15.24604558 4.16629164 19.02623839 -0.3125 22.9375 C-1.59492098 24.05353608 -2.87747392 25.16942055 -4.16015625 26.28515625 C-4.79711426 26.83961426 -5.43407227 27.39407227 -6.09033203 27.96533203 C-14.02904384 34.86476477 -22.00401246 41.70937132 -30.1953125 48.30859375 C-32.31427529 50.05865633 -34.37834783 51.83376916 -36.4296875 53.66015625 C-37.01290771 54.17312256 -37.59612793 54.68608887 -38.19702148 55.21459961 C-39.33598186 56.21935789 -40.4661543 57.23418878 -41.58618164 58.26000977 C-43.15234375 59.6328125 -43.15234375 59.6328125 -46 61.625 C-50.72572883 61.11815055 -53.43470104 57.86128057 -56.75 54.75 C-57.65298828 53.93595703 -57.65298828 53.93595703 -58.57421875 53.10546875 C-60.11341477 51.67796042 -61.56408977 50.15636091 -63 48.625 C-63 45.625 -63 45.625 -60.76171875 43.2421875 C-59.74524111 42.3189461 -58.7198465 41.40546241 -57.6875 40.5 C-57.14496582 40.01354004 -56.60243164 39.52708008 -56.04345703 39.02587891 C-51.68735816 35.15083716 -47.1893304 31.46082189 -42.6484375 27.8046875 C-40.02724881 25.64742601 -37.50845719 23.41189 -35 21.125 C-30.73615211 17.24016081 -26.33288801 13.57233467 -21.8359375 9.9609375 C-19.10118294 7.80242216 -19.10118294 7.80242216 -17.27050781 5.81591797 C-11.76767933 0.29488675 -7.64009237 -0.36430958 0 0 Z " fill="#7C09FA" transform="translate(106,4.375)"/>
<path d="M0 0 C0.66 0 1.32 0 2 0 C3.23662049 28.52471273 3.23662049 28.52471273 -4 38 C-4.38285156 38.60070312 -4.76570313 39.20140625 -5.16015625 39.8203125 C-9.3084646 45.73797101 -17.24765031 49.79602382 -24 52 C-26.75192123 52.16527522 -29.39663188 52.23365572 -32.14453125 52.1953125 C-32.91431808 52.1924826 -33.68410492 52.18965271 -34.47721863 52.18673706 C-36.92247425 52.17559157 -39.36735612 52.15049781 -41.8125 52.125 C-43.47590615 52.1149629 -45.13931807 52.10583833 -46.80273438 52.09765625 C-50.86863237 52.07567073 -54.93425294 52.04118014 -59 52 C-50.70223682 43.66899679 -42.09949484 35.76840731 -32.93359375 28.3984375 C-28.15818776 24.49417747 -23.53032395 20.42146552 -18.87890625 16.37109375 C-14.37704739 12.45151945 -9.84214292 8.57091568 -5.3034668 4.6940918 C-2.58969263 2.41518467 -2.58969263 2.41518467 0 0 Z " fill="#C326E9" transform="translate(143,93)"/>
<path d="M0 0 C0.33 0 0.66 0 1 0 C1.18304688 0.84820312 1.36609375 1.69640625 1.5546875 2.5703125 C3.49189571 7.16725522 6.42208683 9.63403441 10.125 12.875 C10.78371094 13.46796875 11.44242188 14.0609375 12.12109375 14.671875 C13.73817829 16.12490748 15.36786604 17.56389257 17 19 C13.36197107 24.46062806 9.90087262 28.03168032 4.3125 31.49609375 C-0.15194048 34.39948832 -4.4088694 37.86555651 -7.6015625 42.1484375 C-9.21609957 44.28612066 -10.63605288 44.81802644 -13 46 C-13.474375 46.639375 -13.94875 47.27875 -14.4375 47.9375 C-16.34114141 50.45030666 -18.25427682 51.46750334 -21 53 C-23.00580329 54.32458708 -25.00715862 55.6559907 -27 57 C-29.97190082 48.08429753 -31.09712248 32.31078122 -26.89697266 23.75244141 C-24.10990402 20.32391226 -20.61521414 18.16036084 -16.77929688 16.04589844 C-13.87090676 14.3363014 -11.4842539 12.14698108 -8.9375 9.9375 C-6.05841282 7.54331171 -3.42673696 5.52739084 0 4 C0 2.68 0 1.36 0 0 Z " fill="#7D0DFA" transform="translate(33,52)"/>
<path d="M0 0 C1.34377213 -0.00074776 1.34377213 -0.00074776 2.71469116 -0.00151062 C4.60245998 0.00082387 6.49023227 0.01051544 8.37792969 0.02709961 C11.27046424 0.05075693 14.16208035 0.04764779 17.0546875 0.04101562 C18.8906305 0.04659061 20.72656963 0.05369936 22.5625 0.0625 C23.42815582 0.06158859 24.29381165 0.06067719 25.18569946 0.05973816 C25.99018524 0.06927017 26.79467102 0.07880219 27.62353516 0.08862305 C28.33015289 0.09323044 29.03677063 0.09783783 29.76480103 0.10258484 C31.6484375 0.36328125 31.6484375 0.36328125 34.6484375 2.36328125 C34.9609375 4.86328125 34.9609375 4.86328125 34.6484375 7.36328125 C31.65616049 10.35555826 28.32814259 9.66121263 24.31640625 9.671875 C22.61392897 9.69704179 20.91145509 9.72243972 19.20898438 9.74804688 C16.52304008 9.77675912 13.83715512 9.80077272 11.15112305 9.81958008 C8.56006546 9.84127753 5.96971739 9.88072811 3.37890625 9.921875 C2.57978317 9.92199081 1.7806601 9.92210663 0.95732117 9.92222595 C-6.16709611 10.0482692 -9.81426468 12.67128763 -14.9765625 17.48828125 C-18.49526437 20.71506118 -22.07089919 23.80603741 -25.7890625 26.80078125 C-30.60095917 30.68966248 -35.15439504 34.7998268 -39.69140625 39.00390625 C-42.89063764 41.84140369 -46.26336672 44.34909225 -49.76953125 46.79296875 C-50.55263672 47.57027344 -50.55263672 47.57027344 -51.3515625 48.36328125 C-51.3515625 49.68328125 -51.3515625 51.00328125 -51.3515625 52.36328125 C-55.96669362 51.04467236 -59.45053862 49.14972688 -63.3515625 46.36328125 C-60.13130665 43.05645938 -56.83744764 40.04832122 -53.2265625 37.17578125 C-49.31814086 34.01656108 -45.54776443 30.76823518 -41.8515625 27.36328125 C-37.41231225 23.27715318 -32.8232339 19.45078745 -28.125 15.66796875 C-24.23278971 12.43359682 -20.54539657 8.99330433 -16.859375 5.52734375 C-11.17307917 0.62047788 -7.3163025 -0.07820418 0 0 Z " fill="#9F1BF2" transform="translate(82.3515625,91.63671875)"/>
<path d="M0 0 C3.54796334 0.14580671 5.48218892 0.58539525 8.2734375 2.8203125 C8.96695313 3.58085938 9.66046875 4.34140625 10.375 5.125 C13.22058801 8.13797554 16.05691463 11.03243641 19.1875 13.75 C19.83074219 14.31074219 20.47398438 14.87148437 21.13671875 15.44921875 C22.33749989 16.44861102 23.5684577 17.41331359 24.83203125 18.33203125 C27.5544931 20.34040475 28.88025404 21.57628351 29.8125 24.875 C28.58410404 29.59959985 25.60921853 31.86604116 22 35 C21.07960938 35.83337891 21.07960938 35.83337891 20.140625 36.68359375 C18.12141461 38.49003611 16.06362742 40.24448362 14 42 C13.071875 42.81726563 12.14375 43.63453125 11.1875 44.4765625 C10.218125 45.30929688 9.24875 46.14203125 8.25 47 C7.34765625 47.78375 6.4453125 48.5675 5.515625 49.375 C3 51 3 51 0.734375 50.8125 C-1 50 -1 50 -2 49 C-2.34375 46.7421875 -2.34375 46.7421875 -2 44 C-0.09375 41.5703125 -0.09375 41.5703125 2.5 39.125 C3.40621094 38.26003906 4.31242187 37.39507812 5.24609375 36.50390625 C8.2724563 33.75227732 11.33928329 31.06420865 14.50390625 28.47265625 C16.26496626 26.9622024 16.26496626 26.9622024 17 24 C16.55011719 23.61070313 16.10023437 23.22140625 15.63671875 22.8203125 C14.25683621 21.62017418 12.88235489 20.41381257 11.51171875 19.203125 C9.69719721 17.61153846 7.86399162 16.04116724 6.01953125 14.484375 C5.02308594 13.62328125 4.02664062 12.7621875 3 11.875 C2.05125 11.06804688 1.1025 10.26109375 0.125 9.4296875 C-2 7 -2 7 -2.4375 4.3203125 C-2 2 -2 2 0 0 Z " fill="#030203" transform="translate(36,50)"/>
<path d="M0 0 C0.66 0 1.32 0 2 0 C2.30837213 2.93268185 2.50328789 5.1371416 2 8 C-0.04355533 10.37276029 -1.67376108 11.91696398 -4.125 13.75 C-5.41592675 14.78184917 -6.70627515 15.81442223 -7.99609375 16.84765625 C-8.99358643 17.62713623 -8.99358643 17.62713623 -10.01123047 18.42236328 C-13.15322572 20.91482256 -16.16248879 23.55546226 -19.1875 26.1875 C-23.32648575 29.74987351 -27.50639177 33.24964017 -31.75 36.6875 C-35.33731307 39.59955414 -38.82171701 42.58965392 -42.25 45.6875 C-43.06855469 46.42226562 -43.88710937 47.15703125 -44.73046875 47.9140625 C-46.13934452 49.20896725 -47.52289473 50.53276066 -48.86328125 51.8984375 C-52.19009122 55.15641692 -54.19181863 56.35282392 -58.9375 56.375 C-60.29409299 56.27987996 -61.65015829 56.16528674 -63 56 C-60.31048254 52.43468125 -57.5613038 49.64247488 -54.0625 46.875 C-53.10085937 46.10414062 -52.13921875 45.33328125 -51.1484375 44.5390625 C-50.63893555 44.13075195 -50.12943359 43.72244141 -49.60449219 43.30175781 C-46.76166996 40.99531714 -43.97626559 38.62127607 -41.1875 36.25 C-35.23188517 31.1884109 -35.23188517 31.1884109 -33.31494141 29.63085938 C-30.20711777 27.20070575 -30.20711777 27.20070575 -28 24 C-27.01 23.67 -26.02 23.34 -25 23 C-24.0409375 21.7934375 -24.0409375 21.7934375 -23.0625 20.5625 C-20.98690362 17.98372874 -19.84583541 17.42291771 -17 16 C-16.34 15.175 -15.68 14.35 -15 13.5 C-12.98723021 10.98403776 -11.80122025 10.35542915 -9 9 C-8.505 8.34 -8.01 7.68 -7.5 7 C-5.82541412 4.76721883 -4.46816707 4.19427439 -2 3 C-1.34 2.01 -0.68 1.02 0 0 Z " fill="#9D13F5" transform="translate(143,35)"/>
<path d="M0 0 C-4.20740167 5.34453726 -8.82825391 9.44414839 -14.140625 13.6796875 C-16.8455881 15.87469854 -19.42922029 18.1502746 -22 20.5 C-26.38219409 24.49717704 -30.9243629 28.25142162 -35.5546875 31.95703125 C-39.26367638 35.05575519 -42.08802905 38.11737207 -45 42 C-13.32 42.495 -13.32 42.495 19 43 C19 43.33 19 43.66 19 44 C10.27207125 44.023235 1.54415326 44.04097176 -7.18379974 44.05181217 C-11.23712766 44.05701667 -15.29043432 44.06406985 -19.34375 44.07543945 C-23.26003731 44.08635516 -27.17630424 44.09229515 -31.09260559 44.09487724 C-32.58201925 44.0967159 -34.07143187 44.1003062 -35.56083679 44.10573006 C-49.92836454 44.15594041 -49.92836454 44.15594041 -57 43 C-54.26625185 39.3634792 -51.4454341 36.56054579 -47.875 33.75 C-44.14695303 30.76360694 -40.52632476 27.722137 -37 24.5 C-32.74566057 20.6281485 -28.35867739 16.96477544 -23.88671875 13.34765625 C-21.81307497 11.66124229 -19.75413391 9.96408023 -17.70703125 8.24609375 C-16.88887939 7.55954712 -16.88887939 7.55954712 -16.05419922 6.85913086 C-14.51302524 5.56349275 -12.97327251 4.26616461 -11.43359375 2.96875 C-7.46315077 -0.24329376 -5.06850476 -0.0938612 0 0 Z " fill="#A520E5" transform="translate(96,102)"/>
<path d="M0 0 C1.31563683 0.00607269 1.31563683 0.00607269 2.65785217 0.01226807 C3.5579451 0.01035461 4.45803802 0.00844116 5.38540649 0.00646973 C7.29108459 0.00510734 9.19677194 0.0088075 11.10243225 0.01715088 C14.02150838 0.02783724 16.93996731 0.01726385 19.85902405 0.00445557 C21.70863478 0.0057774 23.55824514 0.00834028 25.40785217 0.01226807 C26.72045265 0.00619537 26.72045265 0.00619537 28.05957031 0 C28.87373917 0.00630432 29.68790802 0.01260864 30.52674866 0.019104 C31.24241501 0.02069519 31.95808136 0.02228638 32.69543457 0.02392578 C34.59925842 0.27789307 34.59925842 0.27789307 37.59925842 2.27789307 C37.91175842 4.77789307 37.91175842 4.77789307 37.59925842 7.27789307 C34.973466 9.90368549 33.1030469 9.51581406 29.52909851 9.53013611 C28.69889191 9.52295059 27.8686853 9.51576508 27.01332092 9.50836182 C26.15999176 9.50790359 25.3066626 9.50744537 24.42747498 9.50697327 C22.62013868 9.50394917 20.81280502 9.49605818 19.00550842 9.48370361 C16.24239328 9.46551246 13.47961454 9.46319349 10.71644592 9.46343994 C8.9612347 9.45852212 7.20602574 9.45269265 5.45082092 9.44586182 C4.21158371 9.44419258 4.21158371 9.44419258 2.9473114 9.44248962 C1.78623367 9.43291985 1.78623367 9.43291985 0.60169983 9.42315674 C-0.07621613 9.41934494 -0.75413208 9.41553314 -1.45259094 9.41160583 C-3.53188598 9.26889187 -5.39736502 8.83994188 -7.40074158 8.27789307 C-8.02574158 5.40289307 -8.02574158 5.40289307 -8.40074158 2.27789307 C-5.71598671 -0.4068618 -3.64926844 0.02836706 0 0 Z " fill="#020102" transform="translate(79.40074157714844,91.72210693359375)"/>
<path d="M0 0 C2 3.75 2 3.75 2 6 C0.23247086 7.34332214 -1.54234569 8.67752042 -3.33984375 9.98046875 C-6.56598386 12.42968231 -9.62403034 15.03942319 -12.6875 17.6875 C-13.28747803 18.20602539 -13.88745605 18.72455078 -14.50561523 19.25878906 C-15.73299548 20.31972552 -16.96029013 21.380761 -18.1875 22.44189453 C-21.53137899 25.31644137 -24.91645528 28.14237105 -28.29760742 30.97290039 C-30.95472345 33.21281369 -33.553158 35.49070303 -36.08203125 37.875 C-36.57421143 38.33696777 -37.0663916 38.79893555 -37.57348633 39.27490234 C-38.91173028 40.54145875 -40.23757946 41.82107527 -41.5625 43.1015625 C-44.14099927 45.10981674 -45.78561166 45.66708121 -49 46 C-49.66 45.01 -50.32 44.02 -51 43 C-50.40574219 42.53851563 -49.81148437 42.07703125 -49.19921875 41.6015625 C-44.50133944 37.90463103 -39.96107574 34.11248545 -35.5625 30.0625 C-31.18319859 26.03231772 -26.67404786 22.23950975 -22.04296875 18.50390625 C-17.66171168 14.89878971 -13.39346241 11.16708999 -9.12597656 7.4284668 C-6.15854022 4.83609237 -3.20635414 2.29828893 0 0 Z " fill="#9911F3" transform="translate(70,94)"/>
<path d="M0 0 C0.33 0 0.66 0 1 0 C1 26.4 1 52.8 1 80 C0.67 80 0.34 80 0 80 C-0.33 65.48 -0.66 50.96 -1 36 C-6.445 40.95 -6.445 40.95 -12 46 C-17.43632631 50.6634197 -22.90953994 55.21403834 -29 59 C-29.99 58.34 -30.98 57.68 -32 57 C-30.44106345 52.84606347 -27.40278594 50.53095743 -24.0625 47.8125 C-23.48636963 47.33417725 -22.91023926 46.85585449 -22.31665039 46.36303711 C-20.55098181 44.90049801 -18.7772556 43.44842854 -17 42 C-16.4647168 41.56365234 -15.92943359 41.12730469 -15.37792969 40.67773438 C-13.03621756 38.77055148 -10.69296196 36.86576639 -8.33984375 34.97265625 C-5.9550348 33.02921584 -5.9550348 33.02921584 -3.81640625 30.74609375 C-2 29 -2 29 0 29 C0 19.43 0 9.86 0 0 Z " fill="#A025D8" transform="translate(145,35)"/>
<path d="M0 0 C0.66 0.33 1.32 0.66 2 1 C-0.64 3.64 -3.28 6.28 -6 9 C-6 6 -6 6 -4.6875 4.39453125 C-4.130625 3.87246094 -3.57375 3.35039062 -3 2.8125 C-2.443125 2.28269531 -1.88625 1.75289062 -1.3125 1.20703125 C-0.6628125 0.60955078 -0.6628125 0.60955078 0 0 Z M-9 8 C-8.34 8.66 -7.68 9.32 -7 10 C-8.32 10.33 -9.64 10.66 -11 11 C-10.34 10.01 -9.68 9.02 -9 8 Z " fill="#C538EF" transform="translate(95,134)"/>
</svg>
